<?xml version="1.0" encoding="UTF-8"?>
<svg id="Layer_1" data-name="Layer 1" xmlns="http://www.w3.org/2000/svg" viewBox="0 0 10.3 15.99">
  <defs>
    <style>
      .cls-1 {
        fill: #ffca05;
      }

      .cls-1, .cls-2 {
        stroke-width: 0px;
      }

      .cls-2 {
        fill: #929497;
      }
    </style>
  </defs>
  <path class="cls-2" d="M9.04,9.76v3.68c0,.2-.03.38-.09.54-.17.43-.57.72-1.02.72h0c-.25,0-.71-.09-1.05-.67l-2.27-3.97-1.38.8c-.22.13-.46.2-.7.2-.72,0-1.26-.57-1.26-1.34v-2.4H0v2.4c0,1.46,1.11,2.61,2.53,2.61.46,0,.92-.13,1.33-.37l.21-.12s.03-.01.04-.01c.03,0,.06.01.07.04l1.6,2.79c.68,1.18,1.73,1.31,2.14,1.31.97,0,1.84-.6,2.2-1.52.12-.31.18-.65.18-1.01v-3.68h-1.26Z"/>
  <path class="cls-2" d="M1.26,6.35v-3.81c0-.83.56-1.26,1.12-1.26.25,0,.71.09,1.05.67l2.27,3.97,1.38-.8c.22-.13.46-.2.7-.2.72,0,1.26.57,1.26,1.34v2.39h1.26v-2.39c0-1.46-1.11-2.61-2.53-2.61-.46,0-.92.13-1.33.37l-.21.12s-.03.01-.04.01c-.03,0-.06-.02-.07-.04l-1.6-2.79C3.85.13,2.8,0,2.38,0,1.41,0,.54.6.18,1.52.06,1.83,0,2.17,0,2.54v3.81h1.26Z"/>
  <path class="cls-1" d="M8,6.26c0-.26-.18-.36-.4-.23l-1.87,1.09c-.22.13-.51.05-.64-.17L2.53,2.47c-.13-.22-.23-.2-.23.06v7.19c0,.26.18.36.4.23l1.87-1.09c.22-.13.51-.05.64.17l2.56,4.47c.13.22.23.2.23-.06v-7.19Z"/>
</svg>